HIERARCHY
ROOT Hips
{
	OFFSET 0.00000 0.00000 0.00000
	CHANNELS 6 Xposition Yposition Zposition Yrotation Zrotation Xrotation 
	JOINT Lumbar
	{
		OFFSET 0 0 0
		CHANNELS 3 Zrotation Xrotation Yrotation
		JOINT Neck
		{
			OFFSET 0.00 0.2701 0.00
			CHANNELS 3 Zrotation Xrotation Yrotation
			End Site
			{
				OFFSET 0.00 0.1379 0.00
			}
		}
		JOINT RightShoulder
		{
			OFFSET 0.0119 0.2289 0.1181
			CHANNELS 3 Zrotation Xrotation Yrotation
			JOINT RightElbow
			{
				OFFSET 0.00 -0.1475 0.00
				CHANNELS 2 Zrotation Yrotation
				JOINT RightWrist
				{
					OFFSET 0.00 -0.1605 0.00
					CHANNELS 2 Zrotation Xrotation
					End Site
					{
						OFFSET 0.0040 -0.1068 0.0006
					}
				}
			}
		}
		JOINT LeftShoulder
		{
			OFFSET 0.0119 0.2289 -0.1181
			CHANNELS 3 Zrotation Xrotation Yrotation
			JOINT LeftElbow
			{
				OFFSET 0.00 -0.1475 0.00
				CHANNELS 2 Zrotation Yrotation
				JOINT LeftWrist
				{
					OFFSET 0.00 -0.1605 0.00
					CHANNELS 2 Zrotation Xrotation
					End Site
					{
						OFFSET 0.0040 -0.1068 -0.0006
					}
				}
			}
		}
	}
	JOINT RightHip
	{
		OFFSET 0.0316 -0.0424 0.0458
		CHANNELS 3 Zrotation Xrotation Yrotation
		JOINT RightKnee
		{
			OFFSET 0.00 -0.2438 0.00
			CHANNELS 1 Zrotation
			JOINT RightAnkle
			{
				OFFSET 0.00 -0.2449 0.00
				CHANNELS 3 Zrotation Xrotation Yrotation
				End Site
				{
					OFFSET 0.1237 -0.0542 0.0051
				}
			}
		}
	}
	JOINT LeftHip
	{
		OFFSET 0.0316 -0.0424 -0.0458
		CHANNELS 3 Zrotation Xrotation Yrotation
		JOINT LeftKnee
		{
			OFFSET 0.00 -0.2438 0.00
			CHANNELS 1 Zrotation
			JOINT LeftAnkle
			{
				OFFSET 0.00 -0.2449 0.00
				CHANNELS 3 Zrotation Xrotation Yrotation
				End Site
				{
					OFFSET 0.1237 -0.0542 -0.0051
				}
			}
		}
	}
}
MOTION
Frames: 30
Frame Time: 0.02
-0.16292 -0.00776 -0.10423 -141.48537 -22.8881 2.78232 33.95189 0.61824 -2.36844 -11.69678 -2.08074 -2.11993 5.23018 -28.44553 25.21516 126.75901 110.62985 17.87774 2.78083 12.60301 41.44306 -7.94972 122.831 -100.65751 26.67874 0.32859 25.91748 0.96598 -13.73143 -19.64392 -6.97021 -3.83929 -4.11195 36.76551 14.03892 0.77426 -32.62198 -8.94037 0.83531 2.74944
-0.16437 -0.00859 -0.10607 -141.3312 -22.76143 2.49316 33.99788 0.61127 -2.68044 -11.87393 -1.42865 -2.11993 5.78613 -28.64707 25.06288 126.50743 108.98549 18.4405 2.32483 11.2413 40.85157 -7.36866 122.64617 -97.91205 26.95526 0.71201 25.72245 1.36274 -14.7088 -19.65983 -6.88133 -3.7818 -4.08013 36.55924 14.11591 0.77414 -32.48728 -8.85086 1.06187 2.85866
-0.16579 -0.00953 -0.10762 -141.26297 -22.7219 2.14718 34.13443 0.62157 -3.08071 -12.05403 -0.65771 -2.11993 6.40025 -28.66026 24.85263 126.10551 106.1901 19.36267 1.65164 9.46643 40.42778 -6.51085 122.40968 -93.03181 27.24755 1.39334 25.61053 1.74971 -15.88203 -19.70739 -6.76142 -3.70117 -4.03605 36.28513 14.14331 0.57984 -32.20756 -8.71912 1.33963 2.99177
-0.16719 -0.0104 -0.10929 -141.1625 -22.64015 1.83645 34.22364 0.62547 -3.42407 -12.23204 0.04487 -2.11993 6.96413 -28.74632 24.66594 125.78356 104.05691 20.07796 1.10817 7.90637 39.93076 -5.78615 122.20815 -89.36915 27.51629 1.90506 25.46043 2.13585 -16.92224 -19.73704 -6.65988 -3.63403 -3.99914 36.04841 14.1948 0.48793 -32.00648 -8.61145 1.5874 3.11086
-0.16874 -0.01138 -0.11103 -141.03788 -22.56649 1.47942 34.33927 0.62371 -3.84055 -12.41498 0.82298 -2.11993 7.63662 -28.89467 24.49142 125.41192 101.36527 20.96469 0.43647 6.21675 39.41289 -5.02643 121.96005 -84.73273 27.85422 2.55134 25.30818 2.55 -18.14875 -19.78171 -6.54027 -3.55422 -3.95541 35.77578 14.24574 0.34708 -31.74653 -8.48202 1.86455 3.2438
-0.16997 -0.01215 -0.11255 -140.98139 -22.49846 1.20814 34.42107 0.63711 -4.12498 -12.58695 1.46639 -2.11993 8.09227 -28.86614 24.27789 125.10849 99.54497 21.58668 -0.02249 4.70717 38.9811 -4.27623 121.7955 -81.57354 28.05259 2.99419 25.18236 2.90016 -19.03559 -19.8026 -6.45082 -3.49521 -3.92293 35.56665 14.28371 0.25776 -31.57748 -8.38824 2.0916 3.35301
-0.17038 -0.01236 -0.11356 -141.10234 -22.41664 1.18351 34.38997 0.69543 -4.02209 -12.73704 1.70709 -2.11993 7.95193 -28.38438 23.96795 125.02737 100.50459 21.3619 0.18054 3.76647 38.75142 -3.61119 121.88036 -83.22897 27.85262 2.77351 25.10055 3.09025 -18.91039 -19.7498 -6.4537 -3.50116 -3.92541 35.52846 14.29813 0.3594 -31.68409 -8.40428 2.17609 3.39542
-0.17047 -0.01236 -0.11437 -141.28658 -22.33934 1.24851 34.32141 0.76741 -3.78356 -12.87425 1.80641 -2.11993 7.58785 -27.732 23.62151 125.02048 102.36108 20.86482 0.60113 3.02859 38.60348 -2.9677 122.04997 -86.40107 27.51409 2.34382 25.0446 3.21321 -18.44071 -19.67219 -6.48774 -3.52855 -3.93949 35.56082 14.30018 0.51733 -31.88865 -8.45752 2.20686 3.4123
-0.17069 -0.01244 -0.11526 -141.43436 -22.26549 1.27633 34.26796 0.82796 -3.60698 -13.01114 1.96922 -2.11993 7.31333 -27.16319 23.29313 124.98167 103.74312 20.5121 0.90787 2.21876 38.41494 -2.3202 122.17641 -88.72726 27.24372 2.03037 24.98283 3.35664 -18.14596 -19.60584 -6.50655 -3.54491 -3.94768 35.57618 14.30715 0.64795 -32.05756 -8.49342 2.25666 3.4378
-0.17097 -0.01256 -0.11619 -141.61711 -22.1712 1.28813 34.22485 0.90978 -3.43052 -13.17385 2.13914 -2.11993 7.08964 -26.56155 22.95518 124.93062 105.36618 20.08495 1.26998 1.30848 38.24392 -1.63728 122.31997 -91.62704 26.94842 1.63925 24.8986 3.54129 -17.782 -19.53986 -6.52877 -3.56578 -3.958 35.52754 14.31608 0.78162 -32.18871 -8.53023 2.33076 3.47658
-0.17106 -0.01255 -0.11698 -141.74168 -22.11968 1.35399 34.15123 0.95206 -3.2226 -13.28013 2.25976 -2.11993 6.70929 -25.9914 22.63094 124.92383 106.71697 19.74326 1.57163 0.66154 38.05711 -1.03846 122.44962 -93.73773 26.67639 1.35417 24.86655 3.6254 -17.47598 -19.4678 -6.55171 -3.58278 -3.96686 35.62726 14.31783 0.92187 -32.41766 -8.5738 2.3411 3.48154
-0.17072 -0.01218 -0.11744 -141.68315 -22.18274 1.55947 33.9927 0.8665 -2.94185 -13.22973 2.2714 -2.11993 5.92372 -25.54 22.33925 125.02849 107.08563 19.70531 1.65098 0.69107 37.77747 -0.65495 122.51134 -93.15137 26.46327 1.43143 24.96879 3.43796 -17.42923 -19.37615 -6.56921 -3.58286 -3.96844 36.14189 14.30955 1.09361 -32.94463 -8.63352 2.186 3.39733
-0.1702 -0.01168 -0.11774 -141.56489 -22.28862 1.81435 33.80626 0.7432 -2.63725 -13.12365 2.23897 -2.11993 4.99326 -25.12887 22.06563 125.17423 107.15725 19.76101 1.66347 0.98126 37.48418 -0.35921 122.55757 -91.75497 26.28484 1.61792 25.12265 3.15351 -17.44907 -19.28056 -6.5865 -3.57859 -3.96828 36.7991 14.29338 1.26703 -33.55735 -8.69782 1.9689 3.28028
-0.16976 -0.01125 -0.11809 -141.47787 -22.37612 2.03882 33.63844 0.64743 -2.35568 -13.04581 2.23107 -2.11993 4.14642 -24.70683 21.79326 125.2974 107.37754 19.77101 1.70908 1.1546 37.21496 -0.03193 122.61744 -90.83855 26.11717 1.74061 25.25507 2.92045 -17.42735 -19.19267 -6.60393 -3.57708 -3.96927 37.37721 14.27669 1.42141 -34.09795 -8.75585 1.78147 3.17942
-0.16931 -0.01074 -0.11856 -141.37516 -22.45957 2.29974 33.44381 0.50931 -2.01799 -12.95546 2.19966 -2.11993 3.2157 -24.2478 21.47933 125.44063 107.57 19.78403 1.7506 1.32673 36.87154 0.33129 122.65419 -89.50813 25.83582 1.91516 25.38094 2.65469 -17.44065 -19.07972 -6.62225 -3.57305 -3.96919 38.01998 14.27712 1.65016 -34.78323 -8.83258 1.58552 3.07218
-0.16884 -0.01038 -0.11874 -141.29094 -22.56122 2.4956 33.29949 0.44903 -1.79328 -12.87768 2.20811 -2.11993 2.42952 -23.87725 21.25713 125.54954 107.73916 19.81772 1.78196 1.56222 36.68049 0.59747 122.73207 -88.81979 25.79734 2.01132 25.53107 2.43426 -17.40229 -19.01744 -6.63825 -3.57287 -3.97071 38.55868 14.23991 1.72952 -35.1845 -8.87129 1.39378 2.97096
-0.16832 -0.01046 -0.11825 -141.26511 -22.70536 2.497 33.29586 0.62318 -1.88643 -12.85201 2.34199 -2.11993 2.06804 -23.74611 21.28123 125.56525 107.90795 19.87636 1.80096 1.89555 36.89294 0.63044 122.94619 -90.17021 26.4557 1.85629 25.74651 2.36819 -17.19788 -19.10392 -6.64789 -3.58521 -3.97743 38.79497 14.10285 1.34414 -34.79626 -8.80099 1.22471 2.89288
-0.16778 -0.01069 -0.11749 -141.2611 -22.86581 2.43134 33.34502 0.87484 -2.09439 -12.84022 2.51729 -2.11993 1.86028 -23.7029 21.39789 125.54264 108.06138 19.95593 1.81115 2.28521 37.26133 0.56657 123.19828 -92.17437 27.35149 1.62116 25.98238 2.35027 -16.94231 -19.2402 -6.65503 -3.60129 -3.98567 38.91766 13.92776 0.81649 -34.11665 -8.69261 1.06315 2.82247
-0.16727 -0.01083 -0.11681 -141.25139 -23.01698 2.39766 33.37342 1.08442 -2.25088 -12.81974 2.6714 -2.11993 1.58942 -23.61672 21.47379 125.52939 108.22244 20.03293 1.82463 2.65676 37.57302 0.53815 123.42018 -93.828 28.11654 1.42893 26.20163 2.30724 -16.7164 -19.34858 -6.66318 -3.61502 -3.99289 39.07883 13.76884 0.38933 -33.55856 -8.60343 0.90096 2.74962
-0.16668 -0.01106 -0.11627 -141.22137 -23.17752 2.3592 33.38688 1.32227 -2.40498 -12.8076 2.83408 -2.11993 1.28369 -23.5433 21.54398 125.55096 108.36858 20.0825 1.83863 3.00565 37.82977 0.54198 123.69623 -95.68148 28.97917 1.21276 26.45377 2.27494 -16.46512 -19.47892 -6.67192 -3.63144 -4.00148 39.30005 13.61467 -0.18374 -33.04608 -8.50651 0.72434 2.671
-0.16624 -0.01115 -0.11539 -141.24022 -23.32189 2.31437 33.44476 1.51931 -2.58977 -12.78183 2.98908 -2.11993 1.09041 -23.46522 21.64885 125.49119 108.54891 20.19452 1.85067 3.41203 38.23151 0.45781 123.86869 -97.28233 29.69444 1.02624 26.64145 2.23232 -16.25421 -19.57555 -6.67878 -3.64311 -4.00756 39.36795 13.44127 -0.49335 -32.37261 -8.41649 0.58096 2.60692
-0.1662 -0.01084 -0.1137 -141.38342 -23.41653 2.26558 33.60882 1.59205 -2.84784 -12.71787 3.1156 -2.11993 1.15977 -23.33991 21.81943 125.20762 108.80016 20.45895 1.8564 3.95901 39.05028 0.14254 123.74561 -98.04571 29.94392 0.93897 26.64647 2.15617 -16.16276 -19.56591 -6.6816 -3.64161 -4.00676 39.03365 13.22784 0.01704 -31.28793 -8.35572 0.52294 2.5789
-0.16632 -0.0104 -0.11169 -141.57623 -23.49397 2.21281 33.81625 1.61993 -3.13 -12.63963 3.2327 -2.11993 1.33995 -23.20915 22.02394 124.8442 109.0916 20.78666 1.8613 4.56132 39.99797 -0.25764 123.5169 -98.53352 30.0359 0.88396 26.58528 2.06732 -16.11395 -19.52096 -6.68252 -3.6351 -4.00334 38.54919 12.99584 0.7872 -30.05796 -8.30299 0.49924 2.56581
-0.16637 -0.01003 -0.10982 -141.75019 -23.58022 2.16361 34.00672 1.66367 -3.39014 -12.56608 3.35246 -2.11993 1.4765 -23.08908 22.21653 124.52361 109.3855 21.09621 1.86897 5.13991 40.85254 -0.60777 123.33697 -99.13692 30.20161 0.81542 26.55434 1.98022 -16.04867 -19.49272 -6.68392 -3.63031 -4.00084 38.1375 12.76976 1.39993 -28.91896 -8.24599 0.46321 2.54752
-0.1664 -0.00965 -0.10798 -141.90967 -23.66434 2.10528 34.18875 1.72896 -3.70036 -12.49982 3.48039 -2.11993 1.58868 -22.93722 22.39382 124.17692 109.5963 21.36665 1.86641 5.71488 41.86419 -1.00006 123.15579 -99.79897 30.37059 0.74036 26.52478 1.91128 -15.97061 -19.46292 -6.68677 -3.62785 -3.99947 37.70407 12.55248 2.17185 -27.66451 -8.1903 0.41378 2.52286
-0.1665 -0.00924 -0.10599 -142.11034 -23.74677 2.06514 34.39631 1.73801 -3.91133 -12.41578 3.58866 -2.11993 1.77747 -22.8494 22.61457 123.86258 109.98358 21.72721 1.8848 6.30944 42.5699 -1.33554 122.95077 -100.27048 30.48717 0.68633 26.47472 1.80145 -15.92841 -19.42794 -6.68629 -3.61947 -3.9952 37.28014 12.31357 2.67834 -26.61987 -8.13423 0.40011 2.51481
-0.16671 -0.00875 -0.10366 -142.41609 -23.84458 2.08288 34.67769 1.59984 -3.83551 -12.27646 3.64313 -2.11993 2.13926 -22.93585 22.90853 123.68677 110.90652 22.37586 1.96414 6.94824 42.46024 -1.39221 122.71287 -100.23251 30.54185 0.6937 26.39863 1.57668 -15.98789 -19.38201 -6.67602 -3.59451 -3.98283 36.93388 12.01452 2.36767 -26.19119 -8.07605 0.47846 2.54985
-0.16697 -0.00823 -0.10119 -142.76051 -23.93852 2.11823 34.98025 1.40679 -3.66023 -12.12049 3.67783 -2.11993 2.57695 -23.08645 23.25347 123.5404 111.99692 23.10458 2.06423 7.6049 42.02544 -1.40918 122.453 -100.01741 30.54112 0.71968 26.30186 1.31188 -16.0796 -19.33293 -6.6627 -3.56405 -3.96778 36.60072 11.69556 1.78621 -25.98009 -8.0173 0.59115 2.60083
-0.16721 -0.00774 -0.09877 -143.0852 -24.0234 2.14139 35.26391 1.24035 -3.53374 -11.97968 3.7231 -2.11993 2.985 -23.21075 23.59776 123.36195 112.97006 23.75829 2.1528 8.24931 41.69949 -1.50767 122.19852 -99.91494 30.53383 0.72984 26.20442 1.06857 -16.14848 -19.28833 -6.65142 -3.53697 -3.9544 36.25182 11.38905 1.34205 -25.66996 -7.95831 0.68713 2.64398
-0.16747 -0.0072 -0.09639 -143.42198 -24.15221 2.18176 35.58891 1.06524 -3.39081 -11.81042 3.76316 -2.11993 3.37133 -23.32599 23.84135 123.26177 114.11013 24.56961 2.24962 8.90881 41.54494 -1.33302 121.96028 -99.67232 30.64968 0.7711 26.14528 0.81106 -16.25421 -19.22915 -6.63715 -3.50581 -3.93895 35.93674 11.06712 0.84374 -25.35457 -7.90142 0.78945 2.69037
